<?xml version="1.0" encoding="iso-8859-1"?>
<!-- Generator: Adobe Illustrator 22.0.1, SVG Export Plug-In . SVG Version: 6.00 Build 0)  -->
<svg version="1.1" id="Layer_1" xmlns="http://www.w3.org/2000/svg" xmlns:xlink="http://www.w3.org/1999/xlink" x="0px" y="0px"
	 viewBox="0 0 2048 2048" style="enable-background:new 0 0 2048 2048;" xml:space="preserve">
<g>
	<path style="fill:#BADB47;" d="M1024,1792l-39.985-41.568c-8.984-9.341-17.686-18.848-26.1-28.043
		c-14.215-15.532-27.641-30.204-41.675-43.379c-22.132-20.777-50.068-39.128-85.402-56.099
		c-17.115-8.229-34.498-16.016-52.903-24.261l-0.296-0.133c-26.6-11.923-54.105-24.253-82.038-38.46
		c-69.603-35.422-125.084-76.753-169.625-126.361c-32.344-36.024-59.113-76.495-79.563-120.29
		c-20.669-44.265-34.417-90.942-40.862-138.733c-2.383-17.724-3.861-36.657-4.521-57.901l-0.027-0.883l0-0.885l0.496-589.923
		l50.05-4.883c204.284-19.932,394.328-101.644,535.123-230.085L1024.068,256l37.391,34.117
		c140.752,128.424,330.749,210.132,534.993,230.072l50.047,4.886l0.497,590.815l-0.028,0.883
		c-0.659,21.244-2.137,40.177-4.518,57.88c-6.447,47.812-20.196,94.489-40.865,138.754c-20.449,43.793-47.219,84.265-79.563,120.289
		c-44.541,49.608-100.022,90.939-169.614,126.355c-27.95,14.217-55.462,26.549-82.069,38.475l-0.265,0.118
		c-18.415,8.25-35.798,16.037-52.895,24.257c-35.352,16.98-63.288,35.331-85.423,56.109c-14.03,13.172-27.456,27.843-41.67,43.375
		c-8.415,9.195-17.117,18.704-26.102,28.045L1024,1792z"/>
	<path style="fill:#92CA32;" d="M1023.999,1541.511c-32.906-28.692-71.566-53.545-117.7-75.703
		c-19.167-9.214-37.577-17.461-57.066-26.194l-0.227-0.102c-25.952-11.632-50.304-22.548-74.384-34.797
		c-50.096-25.496-89.019-54.109-118.963-87.457c-20.87-23.248-38.14-49.354-51.329-77.595
		c-13.202-28.274-21.969-57.978-26.056-88.281c-1.509-11.222-2.489-23.762-2.982-38.216l0.365-434.99
		c164.955-31.688,319.163-98.27,448.4-193.599c129.2,95.31,283.371,161.892,448.283,193.582l0.367,434.985
		c-0.494,14.459-1.471,26.998-2.99,38.28c-4.079,30.256-12.846,59.966-26.052,88.244c-13.185,28.238-30.455,54.343-51.327,77.591
		c-29.942,33.348-68.861,61.959-118.982,87.466c-24.108,12.262-48.49,23.191-74.304,34.761l-0.484,0.217
		c-19.424,8.703-37.773,16.926-56.898,26.118C1095.568,1487.964,1056.906,1512.818,1023.999,1541.511z"/>
	<circle style="fill:#F3F6FF;" cx="1024" cy="1003.355" r="236.904"/>
	<g>
		<g>
			<path style="fill:#92CA32;" d="M991.302,1108.716c-12.215,0-24.428-4.659-33.747-13.978l-49.877-49.877
				c-18.637-18.639-18.637-48.856,0-67.495c18.639-18.639,48.856-18.639,67.495,0l16.13,16.13l81.525-81.525
				c18.639-18.639,48.856-18.639,67.495,0c18.637,18.639,18.637,48.856,0,67.495l-115.273,115.273
				C1015.73,1104.058,1003.517,1108.716,991.302,1108.716z"/>
		</g>
	</g>
</g>
</svg>
